<?xml version="1.0" encoding="UTF-8"?>
<svg version="1.1" xmlns="http://www.w3.org/2000/svg" width="512" height="512">
<path d="M0 0 C0.71824951 -0.02288086 1.43649902 -0.04576172 2.17651367 -0.06933594 C7.78343927 0.01283624 11.09630127 2.00202179 15.125 5.625 C19.11553981 10.02482595 19.58509221 13.54740024 19.65625 19.2578125 C18.91880282 22.54379038 17.7637128 23.52238111 15.125 25.625 C12.321024 26.4768385 9.71340478 27.12138716 6.8515625 27.66015625 C6.05019867 27.8249498 5.24883484 27.98974335 4.42318726 28.15953064 C1.86812203 28.68324458 -0.69033557 29.18679033 -3.25 29.6875 C-5.8019399 30.19407839 -8.35273496 30.7051457 -10.90176392 31.22618103 C-12.48490272 31.54907879 -14.06980555 31.86348406 -15.65658569 32.16798401 C-20.1540642 33.07705014 -23.81061651 34.40294951 -27.875 36.625 C-29.34421132 37.09484931 -30.82321189 37.53580211 -32.3125 37.9375 C-37.08668071 39.45619031 -40.46642746 41.98310255 -43.875 45.625 C-45.85984289 49.59468577 -45.41678145 54.30901067 -44.875 58.625 C-43.25743278 62.04135566 -40.99584628 64.07694613 -37.57421875 65.75 C-34.55750294 66.72792235 -32.04517212 66.99513384 -28.875 67.0625 C-27.864375 67.10246094 -26.85375 67.14242187 -25.8125 67.18359375 C-22.22718383 66.67496259 -19.74279136 65.88070216 -16.41796875 64.54296875 C-7.27024566 60.86466106 2.16557972 58.18616741 11.62475586 55.43115234 C14.79179231 54.5060488 17.95347295 53.56404506 21.11523438 52.62109375 C37.06553425 47.91979913 52.75344889 44.01065003 69.5 44.1875 C70.5194873 44.19362305 71.53897461 44.19974609 72.58935547 44.20605469 C82.58321484 44.41396023 91.14055545 46.20272938 99.125 52.625 C99.90617188 53.24117187 100.68734375 53.85734375 101.4921875 54.4921875 C107.17457341 59.23031937 110.77745708 63.7580497 113.96875 70.4375 C114.93031101 72.77006066 114.93031101 72.77006066 117.125 73.625 C120.1883378 73.65026064 123.2384317 73.62121763 126.30078125 73.5703125 C142.25407735 73.44560006 158.16189015 74.37853814 174.08666992 75.22412109 C178.44618495 75.45557089 182.80613194 75.67728939 187.16628361 75.89637375 C239.02243891 78.51115445 287.77022364 84.57907931 332.13671875 113.421875 C336.62564615 116.33214968 341.19260229 119.09634002 345.78198242 121.84472656 C362.73589468 132.01400584 378.14503937 142.58409131 392.125 156.625 C392.72924805 157.22666992 393.33349609 157.82833984 393.95605469 158.44824219 C400.66876398 165.18980784 406.85700108 171.5185208 410.125 180.625 C410.34623535 181.22070801 410.5674707 181.81641602 410.79541016 182.43017578 C414.78243633 193.33199045 417.40458781 203.42621946 413.01953125 214.69921875 C409.90606564 221.40200716 404.38671177 224.20313508 398.125 227.625 C397.57046143 227.97135498 397.01592285 228.31770996 396.44458008 228.67456055 C383.96285059 233.78890355 369.52671249 227.6245471 357.9375 223 C356.30369975 222.37377761 354.66893347 221.75006967 353.03320312 221.12890625 C342.18601794 216.97919936 331.48899278 212.49385151 320.8984375 207.7265625 C313.324226 204.4356982 306.49158881 202.14854315 298.125 203.625 C292.6067072 206.03298231 289.63476649 210.28719953 287.125 215.625 C284.56226633 222.77659973 284.44623814 230.11506943 284.00195312 237.64453125 C283.39024451 246.38480023 282.19231617 254.49735912 275.95703125 261.06640625 C264.75009433 270.60066602 246.47761344 272.79865991 232.25 272.8125 C230.95320313 272.82667969 229.65640625 272.84085937 228.3203125 272.85546875 C209.42728974 272.23826672 191.56109933 267.58851128 173.31860352 262.99829102 C170.03163865 262.17131834 166.74352432 261.35006037 163.45124817 260.54446411 C161.00808832 259.94564897 158.5679189 259.33443458 156.13163757 258.70822144 C147.7019908 256.6511472 137.4867545 254.3845946 129.1875 258 C121.76455819 263.21873953 119.05081208 273.09274423 117 281.4375 C114.02729845 292.73044931 110.60096923 303.83172384 107 314.9375 C106.61929352 316.12298935 106.61929352 316.12298935 106.230896 317.33242798 C95.49184097 350.74489583 95.49184097 350.74489583 82.75390625 358.4609375 C71.26563618 363.54786838 59.2229937 361.60597306 47.79296875 357.3984375 C36.43817831 352.28521111 30.13036424 343.21873243 24.125 332.625 C23.75431396 331.97619873 23.38362793 331.32739746 23.00170898 330.65893555 C18.67689604 322.61322882 16.17212584 314.02423934 13.5625 305.3125 C13.32065979 304.50965576 13.07881958 303.70681152 12.82965088 302.87963867 C1.03292885 263.5487467 -0.22098598 223.68678252 12.34912109 184.29541016 C13.00527021 182.23343818 13.64204903 180.16613692 14.27734375 178.09765625 C16.38504761 171.3422907 18.69509486 164.88767658 22.05273438 158.62939453 C23.06276976 156.74132748 23.92610444 154.85011396 24.75 152.875 C26.08552956 149.71829376 27.56288237 146.67484871 29.125 143.625 C29.785 143.625 30.445 143.625 31.125 143.625 C31.37378906 142.73941406 31.62257813 141.85382813 31.87890625 140.94140625 C33.1892016 137.45413117 34.65339368 135.38111083 37.0625 132.5625 C38.26712891 131.13744141 38.26712891 131.13744141 39.49609375 129.68359375 C40.37238808 128.66405583 41.24869037 127.64452476 42.125 126.625 C43.03361409 125.55428574 43.94115024 124.48265588 44.84765625 123.41015625 C46.23931764 121.7637251 47.63128992 120.11758539 49.02587891 118.47363281 C52.76650122 114.06255873 56.47399344 109.62672074 60.10546875 105.125 C61.39886775 103.52388712 62.71240013 101.93870694 64.05078125 100.375 C67.39585794 96.3616501 67.39585794 96.3616501 68.25 91.3125 C66.92238098 88.14096567 66.08630339 87.32482711 63.125 85.625 C51.18773288 83.90740761 40.36902279 86.96948342 29.125 90.625 C-28.29566418 109.20438846 -28.29566418 109.20438846 -51.875 97.625 C-62.71800395 90.98894077 -71.39565065 78.59133192 -74.46875 66.23828125 C-74.78138439 63.68075825 -74.85068463 61.20242873 -74.875 58.625 C-74.93485856 57.26296131 -74.99618 55.90098649 -75.05859375 54.5390625 C-75.34265772 46.48052276 -75.47121509 39.5833566 -70.875 32.625 C-70.42769531 31.94308594 -69.98039062 31.26117188 -69.51953125 30.55859375 C-68.05696968 28.49218638 -66.50942417 26.55767676 -64.875 24.625 C-64.15763672 23.74714844 -64.15763672 23.74714844 -63.42578125 22.8515625 C-54.99211909 13.46194367 -42.82286008 8.64327493 -30.875 5.625 C-29.25765689 5.17634182 -27.64048164 4.72707829 -26.0234375 4.27734375 C-17.38813517 1.95852358 -8.96786757 0.14653685 0 0 Z " fill="#DADADA" transform="translate(80.875,68.375)"/>
<path d="M0 0 C1.9296875 1.94140625 1.9296875 1.94140625 3.875 4.5625 C4.56335938 5.46871094 5.25171875 6.37492188 5.9609375 7.30859375 C6.63382813 8.19675781 7.30671875 9.08492187 8 10 C9.96836896 12.36287329 11.98190768 14.67919383 14 17 C15.09699219 16.44570312 16.19398438 15.89140625 17.32421875 15.3203125 C18.77859187 14.58843442 20.23302196 13.85666955 21.6875 13.125 C22.40873047 12.76019531 23.12996094 12.39539063 23.87304688 12.01953125 C27.53125364 10.1820758 31.1611695 8.43861498 35 7 C36.27200971 8.10281127 37.54255853 9.20730769 38.8125 10.3125 C39.52019531 10.92738281 40.22789062 11.54226562 40.95703125 12.17578125 C41.63121094 12.77777344 42.30539063 13.37976563 43 14 C43.56460938 14.49242187 44.12921875 14.98484375 44.7109375 15.4921875 C46.63455282 17.74223451 46.83625222 20.05103187 46.74609375 22.94140625 C45.13196686 27.39504432 39.98951421 28.99336934 36 31 C34.77715199 31.76905676 33.56539282 32.55660493 32.375 33.375 C31.59125 33.91125 30.8075 34.4475 30 35 C30.6496875 35.56847656 31.299375 36.13695312 31.96875 36.72265625 C38.71015865 42.95429789 38.71015865 42.95429789 39.59765625 46.15625 C39.5625 48.0625 39.5625 48.0625 39 51 C38.24074219 51.40992188 37.48148438 51.81984375 36.69921875 52.2421875 C35.70535156 52.78101563 34.71148437 53.31984375 33.6875 53.875 C32.70136719 54.40867187 31.71523437 54.94234375 30.69921875 55.4921875 C27.90413542 57.00722126 27.90413542 57.00722126 25 59 C24.01 59 23.02 59 22 59 C20.28125 57.171875 20.28125 57.171875 18.5 54.75 C17.9121875 53.96109375 17.324375 53.1721875 16.71875 52.359375 C16.1515625 51.58078125 15.584375 50.8021875 15 50 C14.00145303 48.66557813 13.00195396 47.33186563 12 46 C8.42635641 46.57409032 5.71615696 47.49945036 2.57421875 49.28515625 C1.77822266 49.73310547 0.98222656 50.18105469 0.16210938 50.64257812 C-0.65451172 51.11115234 -1.47113281 51.57972656 -2.3125 52.0625 C-3.56643555 52.77116211 -3.56643555 52.77116211 -4.84570312 53.49414062 C-6.90069265 54.65667756 -8.95187737 55.82542091 -11 57 C-14.90472401 54.00832091 -17.49349654 51.27033924 -20 47 C-20 46.34 -20 45.68 -20 45 C-20.66 45 -21.32 45 -22 45 C-22.625 41.875 -22.625 41.875 -22 38 C-18.95991414 35.45160455 -15.53030515 33.7779621 -12 32 C-10.62019573 31.21673677 -9.24436519 30.42637388 -7.875 29.625 C-6.92625 29.08875 -5.9775 28.5525 -5 28 C-7.2039686 24.52451105 -9.4064393 21.54082661 -12.25 18.5625 C-14.35413612 16.08320782 -15.06757756 14.78136673 -16.0625 11.5625 C-14.51447433 6.372061 -11.13378078 4.52711967 -6.796875 1.50390625 C-4 0 -4 0 0 0 Z " fill="#727272" transform="translate(159,209)"/>
<path d="M0 0 C3.49155416 2.32358295 5.12609888 3.72307173 7.20703125 7.46875 C8.07771283 12.7242154 7.89117615 16.99099701 5.64453125 21.84375 C1.04516403 26.7969147 -3.27816248 30.07550054 -10.125 30.671875 C-18.77834971 30.83540287 -24.5589536 28.41281095 -30.79296875 22.46875 C-33.70145973 17.79117688 -33.630221 12.79397601 -32.79296875 7.46875 C-30.23093112 2.14984299 -25.59623274 -0.79245064 -20.2109375 -2.8671875 C-12.68894587 -4.93300103 -6.74419897 -3.82348288 0 0 Z " fill="#737373" transform="translate(328.79296875,219.53125)"/>
<path d="M0 0 C3.49155416 2.32358295 5.12609888 3.72307173 7.20703125 7.46875 C8.07771283 12.7242154 7.89117615 16.99099701 5.64453125 21.84375 C1.04516403 26.7969147 -3.27816248 30.07550054 -10.125 30.671875 C-18.77834971 30.83540287 -24.5589536 28.41281095 -30.79296875 22.46875 C-33.70145973 17.79117688 -33.630221 12.79397601 -32.79296875 7.46875 C-30.23093112 2.14984299 -25.59623274 -0.79245064 -20.2109375 -2.8671875 C-12.68894587 -4.93300103 -6.74419897 -3.82348288 0 0 Z " fill="#737373" transform="translate(273.79296875,200.53125)"/>
<path d="M0 0 C3.49155416 2.32358295 5.12609888 3.72307173 7.20703125 7.46875 C8.07771283 12.7242154 7.89117615 16.99099701 5.64453125 21.84375 C1.04516403 26.7969147 -3.27816248 30.07550054 -10.125 30.671875 C-18.77834971 30.83540287 -24.5589536 28.41281095 -30.79296875 22.46875 C-33.70145973 17.79117688 -33.630221 12.79397601 -32.79296875 7.46875 C-30.23093112 2.14984299 -25.59623274 -0.79245064 -20.2109375 -2.8671875 C-12.68894587 -4.93300103 -6.74419897 -3.82348288 0 0 Z " fill="#737373" transform="translate(357.79296875,180.53125)"/>
<path d="M0 0 C3.49155416 2.32358295 5.12609888 3.72307173 7.20703125 7.46875 C8.07771283 12.7242154 7.89117615 16.99099701 5.64453125 21.84375 C1.04516403 26.7969147 -3.27816248 30.07550054 -10.125 30.671875 C-18.77834971 30.83540287 -24.5589536 28.41281095 -30.79296875 22.46875 C-33.70145973 17.79117688 -33.630221 12.79397601 -32.79296875 7.46875 C-30.23093112 2.14984299 -25.59623274 -0.79245064 -20.2109375 -2.8671875 C-12.68894587 -4.93300103 -6.74419897 -3.82348288 0 0 Z " fill="#737373" transform="translate(301.79296875,163.53125)"/>
<path d="M0 0 C0.556875 0.70125 1.11375 1.4025 1.6875 2.125 C3.32380299 4.15932264 4.97133314 6.17628943 6.64453125 8.1796875 C7.42183594 9.11039062 8.19914063 10.04109375 9 11 C11.56376764 9.73167312 14.12602212 8.46043635 16.6875 7.1875 C17.40873047 6.83107422 18.12996094 6.47464844 18.87304688 6.10742188 C21.95470929 4.57362643 24.88987336 3.07253757 27.76953125 1.17578125 C30 0 30 0 32.03125 -0.03515625 C35.95467534 2.02775588 38.18618194 6.14067264 40.78125 9.62890625 C41.5134375 10.41136719 42.245625 11.19382812 43 12 C47.16789135 12 47.76434753 11.76204928 50.9375 9.5 C54.09954353 7.40182159 56.10428645 6.39129476 60 7 C60 7.99 60 8.98 60 10 C59.24074219 10.40992188 58.48148438 10.81984375 57.69921875 11.2421875 C56.20841797 12.05042969 56.20841797 12.05042969 54.6875 12.875 C53.70136719 13.40867187 52.71523437 13.94234375 51.69921875 14.4921875 C48.90413542 16.00722126 48.90413542 16.00722126 46 18 C45.01 18 44.02 18 43 18 C41.28125 16.171875 41.28125 16.171875 39.5 13.75 C38.61828125 12.56664062 38.61828125 12.56664062 37.71875 11.359375 C37.1515625 10.58078125 36.584375 9.8021875 36 9 C35.00145303 7.66557813 34.00195396 6.33186563 33 5 C29.42635641 5.57409032 26.71615696 6.49945036 23.57421875 8.28515625 C22.77822266 8.73310547 21.98222656 9.18105469 21.16210938 9.64257812 C20.34548828 10.11115234 19.52886719 10.57972656 18.6875 11.0625 C17.85154297 11.53494141 17.01558594 12.00738281 16.15429688 12.49414062 C14.09930735 13.65667756 12.04812263 14.82542091 10 16 C6.09527599 13.00832091 3.50650346 10.27033924 1 6 C1 5.34 1 4.68 1 4 C0.34 4 -0.32 4 -1 4 C-0.67 2.68 -0.34 1.36 0 0 Z " fill="#5F5F5F" transform="translate(138,250)"/>
<path d="M0 0 C0.639375 0.7425 1.27875 1.485 1.9375 2.25 C6.6551543 6.90139511 12.40958113 9.20276493 19 9.5 C25.59041887 9.20276493 31.3448457 6.90139511 36.0625 2.25 C37.0215625 1.13625 37.0215625 1.13625 38 0 C37.82474353 4.46904004 37.51446262 6.46103916 34.375 9.75 C27.89893495 14.39987609 21.86222387 15.92571346 14 15 C8.6708972 13.31245078 4.82355839 11.0056326 1 7 C0.125 3.1875 0.125 3.1875 0 0 Z " fill="#5F5F5F" transform="translate(297,235)"/>
<path d="M0 0 C0.639375 0.7425 1.27875 1.485 1.9375 2.25 C6.6551543 6.90139511 12.40958113 9.20276493 19 9.5 C25.59041887 9.20276493 31.3448457 6.90139511 36.0625 2.25 C37.0215625 1.13625 37.0215625 1.13625 38 0 C37.82474353 4.46904004 37.51446262 6.46103916 34.375 9.75 C27.89893495 14.39987609 21.86222387 15.92571346 14 15 C8.6708972 13.31245078 4.82355839 11.0056326 1 7 C0.125 3.1875 0.125 3.1875 0 0 Z " fill="#5F5F5F" transform="translate(242,216)"/>
<path d="M0 0 C0.639375 0.7425 1.27875 1.485 1.9375 2.25 C6.6551543 6.90139511 12.40958113 9.20276493 19 9.5 C25.59041887 9.20276493 31.3448457 6.90139511 36.0625 2.25 C37.0215625 1.13625 37.0215625 1.13625 38 0 C37.82474353 4.46904004 37.51446262 6.46103916 34.375 9.75 C27.89893495 14.39987609 21.86222387 15.92571346 14 15 C8.6708972 13.31245078 4.82355839 11.0056326 1 7 C0.125 3.1875 0.125 3.1875 0 0 Z " fill="#5F5F5F" transform="translate(326,196)"/>
<path d="M0 0 C0.639375 0.7425 1.27875 1.485 1.9375 2.25 C6.6551543 6.90139511 12.40958113 9.20276493 19 9.5 C25.59041887 9.20276493 31.3448457 6.90139511 36.0625 2.25 C37.0215625 1.13625 37.0215625 1.13625 38 0 C37.82474353 4.46904004 37.51446262 6.46103916 34.375 9.75 C27.89893495 14.39987609 21.86222387 15.92571346 14 15 C8.6708972 13.31245078 4.82355839 11.0056326 1 7 C0.125 3.1875 0.125 3.1875 0 0 Z " fill="#5F5F5F" transform="translate(270,179)"/>
<path d="M0 0 C0.99 0 1.98 0 3 0 C2.92578125 1.73046875 2.92578125 1.73046875 2 4 C-0.26525862 5.63227562 -2.38457642 6.97775206 -4.8125 8.3125 C-5.44220703 8.68439453 -6.07191406 9.05628906 -6.72070312 9.43945312 C-11.38495676 12.06768418 -11.38495676 12.06768418 -14.44921875 11.73046875 C-14.96097656 11.48941406 -15.47273437 11.24835938 -16 11 C-16 10.34 -16 9.68 -16 9 C-13.89983377 7.82558465 -11.79541245 6.66035988 -9.6875 5.5 C-9.09259766 5.16613281 -8.49769531 4.83226562 -7.88476562 4.48828125 C-5.04171156 2.93174886 -3.29339012 2 0 2 C0 1.34 0 0.68 0 0 Z " fill="#5D5D5D" transform="translate(202,231)"/>
<path d="M0 0 C3.88268886 1.29422962 5.02735542 3.1924956 7.5625 6.375 C8.34753906 7.35210937 9.13257813 8.32921875 9.94140625 9.3359375 C11.36160614 11.17384324 12.71160622 13.06740933 14 15 C10.42817531 14.73354061 9.15115058 14.14754603 6.54296875 11.6015625 C5.76566406 10.61929688 4.98835937 9.63703125 4.1875 8.625 C3.39730469 7.64789063 2.60710937 6.67078125 1.79296875 5.6640625 C0 3 0 3 0 0 Z " fill="#5F5F5F" transform="translate(144,221)"/>
<path d="M0 0 C6.71539173 1.29975324 12.72019113 3.29928888 19 6 C14.97995088 7.57966666 11.84685332 6.40386686 7.8125 5.25 C5.93498047 4.73179687 5.93498047 4.73179687 4.01953125 4.203125 C3.02308594 3.80609375 2.02664062 3.4090625 1 3 C0.67 2.01 0.34 1.02 0 0 Z " fill="#DCDCDC" transform="translate(247,349)"/>
<path d="M0 0 C0.93065133 2.60582371 1.14917407 3.64198224 0.0625 6.25 C-0.4634375 7.11625 -0.4634375 7.11625 -1 8 C-1.66 8 -2.32 8 -3 8 C-3 8.66 -3 9.32 -3 10 C-4.65 10.33 -6.3 10.66 -8 11 C-5.69281189 6.71522208 -3.67033927 3.27708863 0 0 Z " fill="#DCDCDC" transform="translate(206,419)"/>
<path d="M0 0 C0.721875 0.103125 1.44375 0.20625 2.1875 0.3125 C2.1875 1.3025 2.1875 2.2925 2.1875 3.3125 C1.1975 3.3125 0.2075 3.3125 -0.8125 3.3125 C-0.8125 3.9725 -0.8125 4.6325 -0.8125 5.3125 C-3.1225 5.3125 -5.4325 5.3125 -7.8125 5.3125 C-3.50480769 0.38942308 -3.50480769 0.38942308 0 0 Z " fill="#D4D4D4" transform="translate(379.8125,266.6875)"/>
<path d="M0 0 C5.28 0.33 10.56 0.66 16 1 C16 1.66 16 2.32 16 3 C14.27119018 3.05449838 12.54187288 3.09301688 10.8125 3.125 C9.84957031 3.14820313 8.88664062 3.17140625 7.89453125 3.1953125 C4.87187222 2.9913544 2.73230015 2.26874632 0 1 C0 0.67 0 0.34 0 0 Z " fill="#DCDCDC" transform="translate(470,320)"/>
<path d="M0 0 C9.41002278 0.96355353 9.41002278 0.96355353 14 2 C14 2.33 14 2.66 14 3 C12.41705218 3.05437607 10.83355744 3.09296271 9.25 3.125 C8.36828125 3.14820313 7.4865625 3.17140625 6.578125 3.1953125 C3.8864142 2.99139502 2.30095026 2.36551721 0 1 C0 0.67 0 0.34 0 0 Z " fill="#DBDBDB" transform="translate(328,362)"/>
<path d="M0 0 C0.99 0.33 1.98 0.66 3 1 C2.67 3.97 2.34 6.94 2 10 C0.4375 8.375 0.4375 8.375 -1 6 C-0.6875 2.75 -0.6875 2.75 0 0 Z " fill="#DCDCDC" transform="translate(387,320)"/>
<path d="M0 0 C-0.33 1.65 -0.66 3.3 -1 5 C-2.98 5 -4.96 5 -7 5 C-2.25 0 -2.25 0 0 0 Z " fill="#DBDBDB" transform="translate(372,349)"/>
<path d="M0 0 C0.99 0.33 1.98 0.66 3 1 C1.02 3.31 -0.96 5.62 -3 8 C-3.66 7.67 -4.32 7.34 -5 7 C-2.25 1.125 -2.25 1.125 0 0 Z " fill="#DCDCDC" transform="translate(193,439)"/>
<path d="M0 0 C1.32 0.99 2.64 1.98 4 3 C2.68 2.67 1.36 2.34 0 2 C0 1.34 0 0.68 0 0 Z " fill="#DCDCDC" transform="translate(206,127)"/>
<path d="M0 0 C0.99 0 1.98 0 3 0 C3 0.66 3 1.32 3 2 C2.01 1.67 1.02 1.34 0 1 C0 0.67 0 0.34 0 0 Z " fill="#C1C1C1" transform="translate(162,450)"/>
<path d="M0 0 C3 1 3 1 3 1 Z " fill="#DCDCDC" transform="translate(159,436)"/>
<path d="M0 0 C0.33 0.66 0.66 1.32 1 2 C0.34 1.67 -0.32 1.34 -1 1 C-0.67 0.67 -0.34 0.34 0 0 Z " fill="#DDDDDD" transform="translate(208,417)"/>
<path d="M0 0 C3 1 3 1 3 1 Z " fill="#DDDDDD" transform="translate(266,356)"/>
<path d="M0 0 C2 1 2 1 2 1 Z " fill="#DBDBDB" transform="translate(170,443)"/>
<path d="" fill="#DADADA" transform="translate(0,0)"/>
<path d="M0 0 C2 1 2 1 2 1 Z " fill="#DDDDDD" transform="translate(352,362)"/>
<path d="" fill="#DDDDDD" transform="translate(0,0)"/>
<path d="" fill="#DADADA" transform="translate(0,0)"/>
<path d="" fill="#DDDDDD" transform="translate(0,0)"/>
<path d="" fill="#DADADA" transform="translate(0,0)"/>
<path d="" fill="#DDDDDD" transform="translate(0,0)"/>
<path d="" fill="#DDDDDD" transform="translate(0,0)"/>
<path d="" fill="#DDDDDD" transform="translate(0,0)"/>
<path d="" fill="#DDDDDD" transform="translate(0,0)"/>
<path d="" fill="#DDDDDD" transform="translate(0,0)"/>
</svg>
